<svg width="1946" height="1736" viewBox="0 0 1946 1736" fill="none" xmlns="http://www.w3.org/2000/svg">
<path d="M581.23 1544.99C507.153 1486.71 428.114 1430.87 374.118 1352.18C260.449 1213.42 172.955 1052.8 113.138 883.976C76.9733 774.19 64.5891 656.495 17.9395 550.971C-30.7918 474.303 26.3349 390.554 110.304 366.196C147.662 358.993 213.389 323.725 134.047 348.965C62.9025 401.13 56.0494 301.555 128.987 295.249C178.767 288.647 197.092 247.916 180.051 211.249C126.594 176.376 309.629 138.114 217.522 86.0932C121.64 -17.3868 351.697 -37.3079 294.927 80.2354C281.358 170.61 455.739 63.6346 415.244 168.019C456.385 218.156 569.263 179.453 566.43 249.747C626.345 253.865 646.911 304.245 703.096 308.12C761.423 334.453 867.054 355.164 886.868 420.846C829.05 466.607 695.202 326.308 688.737 452.999C706.226 640.19 701.767 833.011 770.229 1011.26C802.61 1119.18 881.155 1204.13 952.049 1288.19C1019.92 1370.51 1111.83 1428.49 1205.53 1477.28C1287.7 1516.03 1376.29 1541.71 1465.86 1557.86C1502.18 1530.08 1566.31 1426.8 1622.94 1470.32C1625.68 1519.32 1510.53 1572.67 1617.54 1567.25C1680.44 1548.27 1724.01 1615.83 1775.77 1554.87C1823.47 1611.37 1973.99 1518.81 1940.07 1634.27C1894.17 1663.88 1827.25 1645.99 1781.29 1686.74C1705.53 1648.88 1645.21 1720.57 1561.3 1711.53C1468.15 1728.21 1373.35 1734.93 1278.91 1735.07C1123.95 1722.84 965.724 1717.68 818.315 1663.72C735.249 1639.59 654.22 1592.29 581.23 1544.99ZM712.092 1601.73C793.174 1636.75 872.471 1673.71 961.348 1684.89C1102.35 1704.47 1247.95 1734.67 1389.45 1707.15C1325.41 1678.24 1259.18 1718.38 1195.39 1686.49C1118.89 1702.93 1036.77 1682.26 958.955 1672.07C870.518 1632.69 775.046 1605.61 692.224 1554.42C588.683 1516.63 745.734 1602.92 773.701 1609.93C838.388 1646.63 702.549 1591.09 683.365 1575.84C629.179 1545.44 622.28 1551.8 678.016 1582.65C689.238 1589.21 700.323 1596.12 712.092 1601.73ZM557.783 1492.68C636.381 1521.79 557.434 1437.43 521.467 1442.31C505.512 1414.63 460.511 1397.14 492.254 1382.28C435.172 1402.11 432.437 1306.92 405.618 1320.54C345.201 1301.46 382.11 1233.89 310.123 1192.37C303.558 1148.63 238.629 1110.73 217.963 1044.8C208.823 1011.02 144.585 914.094 184.032 1004.3C217.614 1091.14 276.685 1165.58 325.872 1239.85C364.028 1310.58 409.143 1384.57 478.646 1428.69C502.1 1451.19 524.703 1485.62 557.783 1492.68ZM331.442 1244.12C345.801 1269.8 334.162 1232.25 331.442 1244.12ZM651.934 1527.55C669.317 1519.76 626.892 1517.72 651.934 1527.55ZM694.556 1543.11C690.142 1521.64 675.084 1555.13 694.556 1543.11ZM747.968 1565.37C773.352 1541.16 708.764 1550.1 747.968 1565.37ZM839.482 1616.38C854.928 1593.57 790.044 1607.79 839.482 1616.38ZM663.763 1493.88C703.195 1468.33 612.737 1493.52 663.763 1493.88ZM703.803 1513.84C702.655 1500.37 689.542 1519.9 703.803 1513.84ZM903.963 1638.79C936.154 1659.11 1091.91 1683.3 994.39 1647.13C978.033 1650.56 813.543 1600.58 903.963 1638.79ZM586.206 1391.28C583.076 1377.78 536.214 1376.33 586.206 1391.28ZM679.353 1445.64C703.643 1428.7 629.027 1432.57 679.353 1445.64ZM757.746 1493.68C792.574 1480.57 701.318 1480.51 757.746 1493.68ZM548.248 1349.99C586.009 1378.95 700.581 1353.72 606.074 1332.71C563.102 1309.8 466.224 1294.11 532.263 1346.52L548.248 1349.99ZM810.869 1510.27C826.611 1483.48 744.883 1494.96 810.869 1510.27ZM731.071 1446.86C823.382 1472.95 653.423 1388.44 708.278 1437.23L720.457 1442.75L731.071 1446.86ZM891.062 1539.33C978.496 1540.16 812.062 1527.26 891.062 1539.33ZM514.621 1299.41C511.187 1283.12 493.059 1300.76 514.621 1299.41ZM1038.96 1622.29C1041.29 1592.89 1010.44 1644.21 1038.96 1622.29ZM663.862 1390.78C658.543 1375.28 636.541 1390.13 663.862 1390.78ZM522.91 1289.18C573.1 1286.16 454.151 1267.07 522.91 1289.18ZM355.929 1181.27C349.676 1157.18 301.332 1138 355.929 1181.27ZM794.276 1459.45C789.945 1461.72 785.082 1448.95 794.276 1459.45ZM1067.07 1626.88C1066.23 1610.82 1052.22 1632.92 1067.07 1626.88ZM770.13 1434.5C775.054 1413.84 727.31 1428.23 770.13 1434.5ZM566.878 1305.68C604.243 1301.7 507.008 1280.44 566.878 1305.68ZM910.687 1519.32C968.908 1496.26 853.948 1508.08 910.687 1519.32ZM731.876 1397.94C798.941 1406.57 652.04 1352.28 717.121 1393.06L731.876 1397.94ZM964.972 1541.26C1027.63 1503.86 1006.96 1628.96 1071.26 1551.85C1134.64 1505.55 1016.5 1609.08 1094.6 1560.1C1151.14 1522.29 1234.6 1578.03 1287.32 1596.17C1325.22 1594.33 1362.09 1628.96 1400.98 1607.88C1475.8 1587.71 1254.63 1577.98 1312.6 1542.25C1244.14 1562.19 1193.57 1518.51 1159.88 1474.64C1083.07 1456.9 994.292 1417.66 955.939 1349.64C940.287 1324.16 978.504 1353.28 942.43 1311.54C896.175 1270.4 873.079 1223.64 842.019 1173.62C804.905 1153.85 800.536 1095.57 796.806 1171.69C797.11 1123.64 751.995 1091.3 740.963 1104.72C740.765 1058.46 789.261 1081.66 755.322 1047.43C748.029 999.484 723.974 949.514 716.764 895.358C705.55 869.275 715.169 813.386 678.419 872.451C665.047 934.903 673.997 795.745 694.815 841.604C722.136 794.803 684.968 800.311 683.479 806.777C701.273 767.284 694.762 711.236 678.814 732.601C688.303 690.715 693.819 578.49 664.66 598.411C682.339 554.595 698.196 397.985 621.376 457.717C590.279 458.158 536.381 469 510.944 481.665C590.78 525.686 502.89 497.56 470.35 490.555C466.125 531.293 433.934 513.705 393.689 514.1C457.981 522.047 362.387 579.819 325.584 557.376C277.688 580.23 366.869 637.364 326.526 655.044C331.502 681.628 253.193 645.417 259.309 706.921C212.85 687.334 252.95 779.85 276.199 748.556C355.245 769.966 331.844 818.705 333.827 865.051C320.957 892.022 270.235 801.61 322.545 805.789C281.259 738.755 276.898 781.537 242.61 812.688C234.663 814.929 330.051 856.997 270.189 877.769C322.849 885.921 324.391 932.024 335.126 961.191C366.771 994.165 360.252 924.761 398.172 964.42C374.163 929.091 271.177 864.891 354.105 885.481C353.65 849.954 339.092 821.28 364.529 821.972C389.723 776.416 338.15 934.356 394.89 876.432C410.579 869.579 414.514 830.823 442.732 880.109C483.714 920.453 457.54 949.65 399.707 912.695C410.039 947.819 477.058 960.333 464.439 1015.24C477.795 1063.53 496.485 1045.74 512.775 1042.96C525.539 1089.86 532.81 1055.38 533.403 1033.02C591.874 1045.56 578.16 1080.13 596.486 1104.27C636.776 1122.44 538.812 981.006 607.974 1061.74C680.744 1127.47 635.295 1154.89 569.97 1144.36C611.301 1141.02 624.605 1200.26 676.337 1198.17C723.481 1220.62 755.429 1306.77 674.149 1270.89C645.977 1245.46 546.159 1214.11 627.697 1262.45C702.914 1297.33 762.73 1318.14 835.311 1361.92C887.233 1398.98 909.676 1441.45 929.354 1449.86C885.691 1470.71 797.809 1433.21 863.08 1421.74C822.341 1414.33 776.543 1393.72 815.534 1444.44C848.72 1472.16 933.032 1469.22 948.189 1472.35C935.372 1500.58 913.369 1502.82 948.683 1505C909.281 1526.02 961.348 1529.3 964.972 1541.26ZM884.391 1313.68C860.398 1288.59 854.191 1241.64 880.122 1282.47C893.44 1287.84 922.706 1359.24 884.391 1313.68ZM1146.87 1480.41C1161.82 1479.42 1147.31 1491.77 1146.87 1480.41ZM846.547 1252.17C855.178 1281.43 845.59 1214.26 846.547 1252.17ZM820.457 1217.1C858.461 1233.59 790.256 1158.82 820.457 1217.1ZM504.281 998.899C522.021 994.165 513.026 1029.19 504.281 998.899ZM755.923 1135.27C768.694 1169.56 766.803 1094.38 755.923 1135.27ZM578.16 1011.66C604.349 1032.83 565.647 989.105 578.16 1011.66ZM730.683 1060.55C702.116 996.559 750.954 1025.57 737.042 1071.03L730.683 1060.55ZM467.622 885.116C454.858 864.108 433.736 802.499 440.544 783.68C446.652 814.329 505.679 915.529 469.453 825.611C429.467 750.242 517.303 850.045 526.344 868.88C530.569 887.562 501.652 863.767 521.223 907.628C485.507 857.696 500.155 935.207 467.622 885.116ZM386.342 829.083C404.926 862.566 389.67 780.246 386.342 829.083ZM422.91 841.695C452.465 893.071 440.346 804.847 422.91 841.695ZM334.921 773.643C304.66 743.526 282.748 715.81 336.357 754.953C356.977 755.751 290.46 691.915 341.334 734.682C394.783 744.43 367.705 822.382 334.921 773.643ZM381.123 772.45C398.719 755.014 390.468 789.591 381.123 772.45ZM409.591 781.537C441.934 802.507 382.908 731.605 409.591 781.537ZM353.057 727.541C265.076 649.178 463.595 768.469 367.417 742.037L353.057 727.541ZM605.185 873.993C567.083 851.185 595.05 713.28 608.072 807.574C645.088 795.593 606.021 856.313 633.6 855.713C629.285 894.005 616.916 907.787 605.185 873.993ZM698.439 929.137C706.287 957.567 702.162 887.562 698.439 929.137ZM682.248 913.091C686.419 895.358 682.643 934.007 682.248 913.091ZM370.288 701.8C313.762 623.795 534.588 780.686 406.514 721.576C393.142 718.051 377.005 716.805 370.288 701.8ZM549.889 796.998C561.818 807.863 544.533 731.317 549.889 796.998ZM686.214 884.47C696.745 847.067 687.02 909.223 686.214 884.47ZM378.988 672.04C412.577 664.837 518.192 731.013 421.215 690.92C410.442 678.992 387.436 684.416 378.988 672.04ZM667.478 815.818C671.072 748.654 687.567 775.725 667.63 825.459L667.478 815.818ZM403.976 648.647C417.683 628.566 367.599 557.877 411.171 623.301C430.014 638.253 465.669 648.343 434.177 654.649C483.706 698.328 422.112 666.478 403.976 648.647ZM653.218 794.856C662.669 718.347 661.575 839.667 653.218 794.856ZM375.356 577.996C385.841 573.513 380.918 591.945 375.356 577.996ZM440.392 616.698C471.238 655.841 457.122 581.567 440.392 616.698ZM623.761 718.689C627.234 738.314 623.609 705.226 623.761 718.689ZM613.125 695.197C636.829 728.429 587.688 632.395 613.125 695.197ZM597.519 654.003C612.031 686.597 593.264 628.064 597.519 654.003ZM622.956 612.672C605.474 581.909 645.027 477.038 649.449 542.074C631.01 592.751 644.131 621.075 656.94 553.106C680.698 499.649 651.827 658.683 622.956 612.672ZM649.092 456.722C656.705 447.377 650.786 467.989 649.092 456.722ZM605.436 1316.85C606.765 1322.57 595.095 1307.81 605.436 1316.85ZM695.354 1362.32C745.377 1375.19 745.134 1354.56 699.913 1348.4C675.623 1325.8 598.864 1301.8 667.577 1345.62C672.105 1357.15 686.465 1356.85 695.354 1362.32ZM517.797 1244.36C545.316 1264.95 621.573 1302.59 557.039 1252.23C578.799 1226.93 515.404 1213.47 536.426 1196.54C482.916 1163.78 494.183 1166.72 531.708 1167.76C467.417 1138.99 540.993 1141.18 537.52 1126.43C512.729 1121.56 414.355 1082.7 472.234 1129.61C413.413 1099.64 458.216 1140.78 440.438 1136.46C380.264 1120.07 494.001 1182.28 430.895 1166.82C465.381 1194.14 523.753 1236.87 445.452 1195.73C435.172 1210.58 501.508 1233.1 517.797 1244.36ZM611.833 1298.42C726.155 1335.24 555.74 1253.36 611.833 1298.42ZM1093.25 1590.05C1094.74 1567.35 1077.65 1609.42 1093.25 1590.05ZM1142.73 1610.87C1169.11 1585.34 1143.83 1651.61 1186.45 1604.61C1186.89 1570.97 1185.16 1551.11 1137.47 1591.99C1124.3 1599.3 1118.44 1630.23 1142.73 1610.87ZM357.274 1117.6C349.167 1085.75 300.481 1085.88 357.274 1117.6ZM410.077 1152.21C390.453 1119.68 340.073 1122.76 410.077 1152.21ZM710.701 1333.5C740.074 1359.59 845.491 1352.63 746.334 1336.74C731.671 1315.02 653.126 1320.24 710.701 1333.5ZM1123.9 1588.73C1169.06 1550.82 1080.14 1605.62 1123.9 1588.73ZM1217.85 1653.25C1218.14 1641.08 1198.38 1658.57 1217.85 1653.25ZM1218 1636.21C1268.03 1583.26 1169.56 1639.34 1218 1636.21ZM227.301 1008.78C184.678 947.972 200.823 920.643 159.689 870.962C151.879 832.958 89.1448 746.808 127.247 838.071C162.12 891.483 172.445 974.145 227.301 1008.78ZM1202.3 1619.37C1294.37 1559.89 1164.55 1593.48 1202.3 1619.37ZM1272.56 1646.89C1318.66 1607.33 1243.39 1638.64 1272.56 1646.89ZM341.615 1050.36C354.789 1030.73 307.539 1047.83 341.615 1050.36ZM1257.89 1628.11C1302.51 1599.35 1247.61 1603.76 1249.8 1630.73L1257.89 1628.11ZM652.374 1246.45C650.839 1226.98 628.783 1248.09 652.374 1246.45ZM689.785 1267.97C677.864 1243.92 671.505 1271.75 689.785 1267.97ZM1329.48 1647.54C1386.66 1606.29 1294.86 1639.63 1317.51 1655.39L1329.48 1647.54ZM1307.58 1636.96C1354.18 1597.95 1258.44 1654.24 1307.58 1636.96ZM1419.45 1711.42C1450.71 1690.51 1381.45 1704.67 1419.45 1711.42ZM370.288 1036.2C412.167 1045.59 537.756 1139.39 463.686 1042.71C425.736 1031.48 448.491 938.725 409.789 955.121C435.773 998.541 431.138 1016.97 376.587 989.652C308.086 956.162 338.09 1006.2 351.515 1020.01C333.219 1024.18 375.652 1035.86 370.281 1036.2L370.288 1036.2ZM179.359 885.427C186.858 854.368 110.251 714.716 143.195 815.423C155.062 836.537 153.831 876.523 179.359 885.427ZM529.809 1101.48C528.768 1098.9 508.201 1083.45 529.809 1101.48ZM582.916 1113.87C582.916 1080.97 524.202 1100.49 582.916 1113.87ZM1043.47 1404.15C1034.68 1381.68 1008.75 1403.65 1043.47 1404.15ZM1065.58 1420.29C1062.29 1407.72 1052.8 1422.73 1065.58 1420.29ZM1248.11 1535.3C1265.65 1522.34 1226.19 1533.62 1248.11 1535.3ZM274.702 909.77C324.923 890.336 220.888 895.905 274.702 909.77ZM1002.92 1368.52C1002.34 1336.03 970.883 1376.62 1002.92 1368.52ZM254.872 863.508C287.117 852.644 225.014 856.366 254.872 863.508ZM348.476 908.866C347.921 898.192 338.591 912.946 348.476 908.866ZM1490.4 1609.13C1531.89 1600.73 1626.43 1630.25 1641.68 1598.16C1591.31 1596.91 1467.45 1562.58 1461.59 1606.29L1472.62 1608.04L1490.41 1609.13H1490.4ZM378.228 916.373C378.988 883.429 352.548 915.134 378.228 916.373ZM132.125 745.615C120.949 682.859 89.593 736.118 132.125 745.615ZM190.794 760.37C191.546 740.198 137.078 742.234 190.794 760.37ZM224.33 776.865C216.778 786.742 214.643 769.009 224.33 776.865ZM435.423 912.247C445.368 903.1 411.878 905.493 435.423 912.247ZM202.023 739.704C196.317 692.31 134.009 732.601 202.023 739.704ZM81.6383 661.601C79.944 639.742 69.9075 669.844 81.6383 661.601ZM99.5687 648.099C96.6436 622.153 84.1683 651.366 99.5687 648.099ZM198.452 707.11C240.285 690.715 122.278 673.126 189.905 704.033L198.452 707.11ZM1522.16 1524.77C1548.94 1500.23 1488.18 1517.17 1522.16 1524.77ZM1682.08 1607.64C1692.82 1575.95 1655.05 1611.82 1682.08 1607.64ZM208.557 655.294C212.987 624.6 175.378 661.403 208.557 655.294ZM67.8257 561.008C60.2737 517.686 61.3145 441.618 133.606 467.306C37.116 486.482 200.428 587.273 179.808 507.687C220.394 509.685 259.203 483.701 237.884 523.088C317.872 514.297 373.274 444.946 450.52 454.686C510.678 446.693 576.458 440.676 641.297 416.432C694.602 412.603 745.917 355.217 716.719 321.188C644.032 315.033 567.911 324.12 487.581 340.121C398.559 358.598 317.682 393.768 227.848 408.88C140.254 420.656 245.436 441.268 220.341 445.888C174.679 461.737 274.847 472.419 214.43 489.157C177.126 482.06 138.271 469.243 154.219 429.895C70.3558 440.82 -3.3719 475.595 62.9101 560.947L67.8333 560.992L67.8257 561.008ZM269.984 458.059C289.609 385.631 375.303 517.686 302.175 467.701C293.476 461.136 279.063 455.818 269.984 458.059ZM273.798 422.928C302.175 401.821 288.857 434.81 273.798 422.928ZM309.819 423.536C312.417 390.197 392.352 441.17 322.993 435.509L309.819 423.536ZM359.105 403.713C377.141 382.637 364.332 422.388 359.105 403.713ZM371.732 395.272C401.735 359.252 541.486 372.259 439.192 391.732C411.764 371.066 390.756 403.903 371.732 395.272ZM554.152 367.146C644.822 402.072 549.639 268.718 554.152 367.146ZM605.93 366.842C624.848 317.267 679.399 346.928 614.72 356.859C616.103 362.177 612.783 382.501 605.93 366.842ZM188.157 629.858C244.684 595.227 128.136 599.809 188.157 629.858ZM229.983 641.436C249.812 620.376 186.858 632.889 229.983 641.436ZM106.779 554.048C139.069 529.204 68.5247 544.612 106.779 554.048ZM1776.47 1598.6C1777.41 1569.78 1751.78 1611.56 1776.47 1598.6ZM1606.81 1482.79C1611.62 1449.66 1585 1485.67 1606.81 1482.79ZM1823.12 1609.78C1868.29 1609.93 1959.98 1595.71 1861.72 1595.76C1846.27 1598.16 1771.85 1597.66 1823.12 1609.78ZM266.755 621.105C303.323 618.621 323.935 580.807 259.644 582.95C160.038 572.67 347.526 617.086 246.88 604.367C233.371 613.31 265.95 623.589 266.755 621.105ZM298.946 637.41C295.117 613.956 287.611 649.87 298.946 637.41ZM337.147 535.555C352.996 515.877 315.19 530.29 337.147 535.555ZM215.524 332.318C280.811 310.163 370.038 285.22 400.846 343.259C369.491 305.552 388.181 268.384 417.789 323.581C459.667 379.378 480.622 298.197 453.399 279.461C484.458 318.012 519.727 336.254 474.164 281.908C523.7 222.334 375.052 289.703 341.273 289.004C325.029 296.298 173.441 327.653 215.524 332.318ZM253.778 259.099C290.999 231.034 382.505 275.837 323.783 231.171C318.024 226.11 195.216 265.056 253.778 259.099ZM389.465 264.707C432.984 265.801 370.691 206.182 422.553 233.207C414.059 205.392 362.144 200.172 336.76 189.049C322.4 214.486 365.958 265.056 389.465 264.707ZM277.574 141.541C292.633 121.126 251.15 151.927 277.574 141.541ZM333.037 154.799C403.224 145.515 315.137 124.598 318.86 154.062L333.037 154.799ZM229.481 73.823C180.043 9.28852 322.438 84.6573 272.203 17.0837C229.929 -16.5435 189.343 54.996 229.481 73.823ZM863.657 415.391C886.329 375.237 770.115 361.235 848.409 401.168C855.612 403.561 853.986 418.164 863.657 415.391Z" fill="black"/>
</svg>
